<svg xmlns="http://www.w3.org/2000/svg" width="500" height="500" style="width:100%;height:100%;transform:translate3d(0,0,0);content-visibility:visible" viewBox="0 0 500 500"><defs><filter id="a" width="100%" height="100%" x="0%" y="0%" filterUnits="objectBoundingBox"><feComponentTransfer in="SourceGraphic"><feFuncA tableValues="1.0 0.0" type="table"/></feComponentTransfer></filter><filter id="c" width="100%" height="100%" x="0%" y="0%" filterUnits="objectBoundingBox"><feComponentTransfer in="SourceGraphic"><feFuncA tableValues="1.0 0.0" type="table"/></feComponentTransfer></filter><filter id="e" width="100%" height="100%" x="0%" y="0%" filterUnits="objectBoundingBox"><feComponentTransfer in="SourceGraphic"><feFuncA tableValues="1.0 0.0" type="table"/></feComponentTransfer></filter><filter id="g" width="100%" height="100%" x="0%" y="0%" filterUnits="objectBoundingBox"><feComponentTransfer in="SourceGraphic"><feFuncA tableValues="1.0 0.0" type="table"/></feComponentTransfer></filter><filter id="i" width="100%" height="100%" x="0%" y="0%" filterUnits="objectBoundingBox"><feComponentTransfer in="SourceGraphic"><feFuncA tableValues="1.0 0.0" type="table"/></feComponentTransfer></filter><filter id="k" width="100%" height="100%" x="0%" y="0%" filterUnits="objectBoundingBox"><feComponentTransfer in="SourceGraphic"><feFuncA tableValues="1.0 0.0" type="table"/></feComponentTransfer></filter><filter id="m" width="100%" height="100%" x="0%" y="0%" filterUnits="objectBoundingBox"><feComponentTransfer in="SourceGraphic"><feFuncA tableValues="1.0 0.0" type="table"/></feComponentTransfer></filter><filter id="o" width="100%" height="100%" x="0%" y="0%" filterUnits="objectBoundingBox"><feComponentTransfer in="SourceGraphic"><feFuncA tableValues="1.0 0.0" type="table"/></feComponentTransfer></filter><filter id="q" width="100%" height="100%" x="0%" y="0%" filterUnits="objectBoundingBox"><feComponentTransfer in="SourceGraphic"><feFuncA tableValues="1.0 0.0" type="table"/></feComponentTransfer></filter><mask id="G" mask-type="alpha"><g filter="url(#a)"><path fill="#fff" d="M0 0h500v500H0z" opacity="0"/><use xmlns:ns1="http://www.w3.org/1999/xlink" ns1:href="#b"/></g></mask><mask id="F" mask-type="alpha"><g filter="url(#c)"><path fill="#fff" d="M0 0h500v500H0z" opacity="0"/><use xmlns:ns2="http://www.w3.org/1999/xlink" ns2:href="#d"/></g></mask><mask id="E" mask-type="alpha"><g filter="url(#e)"><path fill="#fff" d="M0 0h500v500H0z" opacity="0"/><use xmlns:ns3="http://www.w3.org/1999/xlink" ns3:href="#f"/></g></mask><mask id="C" mask-type="alpha"><g filter="url(#g)"><path fill="#fff" d="M0 0h500v500H0z" opacity="0"/><use xmlns:ns4="http://www.w3.org/1999/xlink" ns4:href="#h"/></g></mask><mask id="A" mask-type="alpha"><g filter="url(#i)"><path fill="#fff" d="M0 0h500v500H0z" opacity="0"/><use xmlns:ns5="http://www.w3.org/1999/xlink" ns5:href="#j"/></g></mask><mask id="z" mask-type="alpha"><g filter="url(#k)"><path fill="#fff" d="M0 0h500v500H0z" opacity="0"/><use xmlns:ns6="http://www.w3.org/1999/xlink" ns6:href="#l"/></g></mask><mask id="y" mask-type="alpha"><g filter="url(#m)"><path fill="#fff" d="M0 0h500v500H0z" opacity="0"/><use xmlns:ns7="http://www.w3.org/1999/xlink" ns7:href="#n"/></g></mask><mask id="x" mask-type="alpha"><g filter="url(#o)"><path fill="#fff" d="M0 0h500v500H0z" opacity="0"/><use xmlns:ns8="http://www.w3.org/1999/xlink" ns8:href="#p"/></g></mask><mask id="u" mask-type="alpha"><g filter="url(#q)"><path fill="#fff" d="M0 0h500v500H0z" opacity="0"/><use xmlns:ns9="http://www.w3.org/1999/xlink" ns9:href="#r"/></g></mask><clipPath id="t"><path d="M0 0h500v500H0z"/></clipPath><clipPath id="B"><path d="M0 0h500v500H0z"/></clipPath><clipPath id="D"><path d="M0 0h500v500H0z"/></clipPath><clipPath id="s"><path d="M0 0h500v500H0z"/></clipPath><clipPath id="v"><path d="M0 0h500v500H0z"/></clipPath><clipPath id="w"><path d="M0 0h500v500H0z"/></clipPath><g id="b" style="display:none"><path/><path fill-opacity="0" stroke-linecap="round" stroke-linejoin="round"/></g><g id="d" style="display:none"><path/><path fill-opacity="0" stroke-linecap="round" stroke-linejoin="round"/><path/></g><g id="j" clip-path="url(#s)" style="display:none"><g style="display:none"><path fill-opacity="0" stroke-linecap="round" stroke-linejoin="round"/><path/></g><g style="display:none"><path fill-opacity="0" stroke-linecap="round" stroke-linejoin="round"/><path/><path fill-opacity="0" stroke-linecap="round" stroke-linejoin="round"/><path/></g><g style="display:none"><path fill-opacity="0" stroke-linecap="round" stroke-linejoin="round"/><path/></g><g style="display:none"><path fill-opacity="0" stroke-linecap="round" stroke-linejoin="round"/><path/></g><g style="display:none"><path fill-opacity="0" stroke-linecap="round" stroke-linejoin="round"/><path/></g><g style="display:none"><path fill-opacity="0" stroke-linecap="round" stroke-linejoin="round"/><path/></g><g style="display:none"><path fill-opacity="0" stroke-linecap="round" stroke-linejoin="round"/><path/></g></g><g id="l" style="display:block"><path fill="red" d="M283.127 260.133c.004.003.006.006.005.006l-13.479 13.395-43.334 43.064c-7.438 7.392-21.99 13.393-32.477 13.393h-79.481c0-10.065 6.132-27.017 22.314-31.866.173-.052.346-.102.521-.151 2.711-.759 5.698-1.181 8.979-1.181h55.013c.003 0 .006-.001.007-.003l10.844-15.605 22.8-32.812 10.843-15.606.007.001 4.734 3.46 18.713 13.679 13.991 10.226zm-131.111 36.66.153 33.198"/><path fill-opacity="0" stroke="#121330" stroke-linecap="round" stroke-linejoin="round" stroke-width="0" d="M283.127 260.133c.004.003.006.006.005.006 0 0 0 0 0 0l-13.479 13.395-43.334 43.064c-7.438 7.392-21.99 13.393-32.477 13.393h-79.481c0-10.065 6.132-27.017 22.314-31.866.173-.052.346-.102.521-.151 2.711-.759 5.698-1.181 8.979-1.181h55.013c.003 0 .006-.001.007-.003 0 0 0 0 0 0l10.844-15.605 22.8-32.812 10.843-15.606s0 0 0 0l.007.001s0 0 0 0l4.734 3.46s0 0 0 0l18.713 13.679s0 0 0 0l13.991 10.226s0 0 0 0zm-131.111 36.66.153 33.198"/></g><g id="n" style="display:block"><path fill="red" d="M283.127 260.133c.004.003.006.006.005.006l-13.479 13.395-43.334 43.064c-7.438 7.392-21.99 13.393-32.477 13.393h-79.481c0-10.065 6.132-27.017 22.314-31.866.173-.052.346-.102.521-.151 2.711-.759 5.698-1.181 8.979-1.181h55.013c.003 0 .006-.001.007-.003l10.844-15.605 22.8-32.812 10.843-15.606.007.001 4.734 3.46 18.713 13.679 13.991 10.226zm-131.111 36.66.153 33.198M299.25 169l-50 58 37.5 29.25 36.955-41.969L336.5 199.75l-17.24-14.232L299.25 169z"/><path fill-opacity="0" stroke="#121330" stroke-linecap="round" stroke-linejoin="round" stroke-width="0" d="M283.127 260.133c.004.003.006.006.005.006 0 0 0 0 0 0l-13.479 13.395-43.334 43.064c-7.438 7.392-21.99 13.393-32.477 13.393h-79.481c0-10.065 6.132-27.017 22.314-31.866.173-.052.346-.102.521-.151 2.711-.759 5.698-1.181 8.979-1.181h55.013c.003 0 .006-.001.007-.003 0 0 0 0 0 0l10.844-15.605 22.8-32.812 10.843-15.606s0 0 0 0l.007.001s0 0 0 0l4.734 3.46s0 0 0 0l18.713 13.679s0 0 0 0l13.991 10.226s0 0 0 0zm-131.111 36.66.153 33.198"/><path fill="red" d="m299.25 169-50 58 37.5 29.25 36.955-41.969L336.5 199.75l-17.24-14.232L299.25 169z"/></g><path id="f" style="display:none"/><path id="p" fill="red" d="m313.944 209.52 36.174 30.117h51.44c17.332 0 21.458-25.44 21.458-25.44h-60.52l-29.367-23.263s-26.6-19.752-33.903-19.375m95.18 46.49v20.08" style="display:block"/><path id="h" fill="red" d="M-119.825-269.891h-146v533h409l-22.603-50.999-.199-52.1h-240.746v-320.02h.489l.059-109.881z" style="display:block" transform="matrix(-1 0 0 1 265.175 249.891)"/><path id="r" fill="red" d="M85.175-269.891h-351v533h409l-22.603-50.999-.199-52.1h-240.746v-320.02H85.116l.059-109.881z" style="display:block" transform="matrix(-1 0 0 1 265.175 249.891)"/></defs><g clip-path="url(#t)"><g mask="url(#u)" style="display:block"><g clip-path="url(#v)" transform="matrix(1.09 0 0 1.09 -34.5 -6.5)"><g clip-path="url(#w)" mask="url(#x)" style="display:block"><g mask="url(#y)" style="display:block"><path fill="none" stroke="#07A889" stroke-linecap="round" stroke-linejoin="round" stroke-width="11.97" d="M272.515 202.094h-33.258l-25.723 29.333c-3.446 3.929-8.039 6.757-13.168 7.76-5.777 1.13-13.238.523-19.978-6.422 6.916-7.618 16.38-18.697 25.322-29.341 13.82-16.451 26.395-31.865 26.395-31.865h67.121m-98.298 37.539 18.11 16.052"/></g><path fill="none" stroke="#07A889" stroke-linecap="round" stroke-linejoin="round" stroke-width="11.97" d="m285.747 256.561 35.512-40.95m-22.033-44.052-53.542 61.206" style="display:block"/><path fill="none" stroke="#121330" stroke-linecap="round" stroke-linejoin="round" stroke-width="11.97" d="M33.127 10.133c.004.003.006.006.005.006 0 0 0 0 0 0L19.653 23.534l-43.334 43.064c-7.438 7.392-21.99 13.393-32.477 13.393h-79.481c0-10.065 6.132-27.017 22.314-31.866.173-.052.346-.102.521-.151 2.711-.759 5.698-1.181 8.979-1.181h55.013c.003 0 .006-.001.007-.003 0 0 0 0 0 0l10.844-15.605 22.8-32.812 10.843-15.606s0 0 0 0l.007.001s0 0 0 0l4.734 3.46s0 0 0 0L19.136-.092s0 0 0 0l13.991 10.226s0 0 0 0zm-131.111 36.66.153 33.198" style="display:block" transform="translate(250 250)"/><g mask="url(#z)" style="display:block"><path fill="none" stroke="#121330" stroke-linecap="round" stroke-linejoin="round" stroke-width="11.97" d="M245.981 234.749c.014-.004.032-.004.039.002 0 0 0 0 0 0 .006.006 6.966 4.922 15.53 10.973l54.792 38.705c8.564 6.05 15.407 19.476 15.27 29.961 0 0-.498 36.045-.545 41.828-.002.189-.002-.111-.002-.03 6.85 12.424 12.707 18.875 16.558 24.667.101.152-.112-.134-.013.018-10.077 0-39.662.114-48.672.118-.179 0-.133-.01-.296-.01-.142-3.678.02-15.848.02-18.922 0-26.196.405-45.742.482-49.09.075 0 .009-.089.009-.089.005-.05.009-.092.008-.096 0 0 0 0 0 0 0-.004-7.502-4.032-16.742-8.99l-36.557-19.614c-9.24-4.958-16.739-8.984-16.735-8.986 0 0 0 0 0 0 .004-.002.001-.005-.006-.008 0 0 0 0 0 0-.007-.004 3.262-7.865 7.296-17.544l2.229-5.347c4.034-9.68 7.32-17.542 7.335-17.546 0 0 0 0 0 0zm52.681 121.47 32.386.034"/></g><path fill="none" stroke="#121330" stroke-linecap="round" stroke-linejoin="round" stroke-width="11.97" d="m-4.25-16.5 41 29m44.829-137.898-9.606 17.031c-4.283 7.594-1.599 17.223 5.995 21.506l13.751 7.756 17.362-30.782c4.283-7.594 1.599-17.223-5.995-21.506v-.001c-7.594-4.283-17.224-1.598-21.507 5.996z" style="display:block" transform="translate(250 250)"/></g><path fill="none" stroke="#07A889" stroke-linecap="round" stroke-linejoin="round" stroke-width="11.97" d="m63.944-40.479 36.174 30.116h51.441c17.331 0 21.457-25.439 21.457-25.439h-60.519L83.129-59.066S56.53-78.818 49.226-78.441m95.181 46.49v20.081" style="display:block" transform="translate(250 250)"/></g></g><g mask="url(#A)" style="display:block"><path fill="none" stroke="#121330" stroke-linecap="round" stroke-linejoin="round" stroke-width="11.97" d="M383.815 409.901H143.069V89.881h240.746"/></g><g clip-path="url(#B)" mask="url(#C)" style="display:none"><g clip-path="url(#D)" mask="url(#E)" style="display:none"><g mask="url(#F)" style="display:none"><path fill="none"/></g><g fill="none" style="display:none"><path/><path/></g><path fill="none" style="display:none"/><g mask="url(#G)" style="display:none"><path fill="none"/></g><path fill="none" style="display:none"/><path fill="none" style="display:none"/></g><path fill="none" style="display:none"/></g><path fill="none" stroke="#121330" stroke-linecap="round" stroke-linejoin="round" stroke-width="11.97" d="M120.373-160.01v320.02" style="display:block" transform="translate(263.442 249.891)"/><g class="com" style="display:none"><path/><path/><path/><path/><path/><path/><path/><path/><path/><path/><path/><path/></g></g></svg>